<svg xmlns="http://www.w3.org/2000/svg" viewBox="0 0 337.35 71.04"><path d="M5,41.67a4.36,4.36,0,0,1,1.08,8.6A21.6,21.6,0,0,0,16.6,52.83c3.7,0,6.65-1.28,6.65-4.64C23.25,41.8,0,37.84,0,29.71c0-7.13,7.39-10.56,14.85-10.56,4.44,0,14.72,2.76,14.72,8.67a4.44,4.44,0,0,1-8.87,0,4.32,4.32,0,0,1,3.49-4.23,17.58,17.58,0,0,0-9.34-2.42c-6.45,0-7.93,1.68-8,4.37.48,4,5.58,5,10.56,7.32,6.52,3,12.9,6,12.9,12,0,6.58-6.92,10-14.25,10C11.36,54.91.54,52.22.54,46A4.41,4.41,0,0,1,5,41.67Zm0,6.72A2.36,2.36,0,1,0,2.55,46,2.4,2.4,0,0,0,5,48.39ZM25.14,30.18a2.36,2.36,0,1,0-2.42-2.36A2.39,2.39,0,0,0,25.14,30.18Z" fill="#fff"/><path d="M65.87,53.77a4.41,4.41,0,0,1-2.22-.47A13.58,13.58,0,0,1,56,55.85a21.73,21.73,0,0,1-21.31-22c0-11.89,10.42-20.63,21-20.63,5.78,0,11.56,2.62,15.73,8.74a.23.23,0,0,1,.07.2.46.46,0,0,1-.48.4.77.77,0,0,1-.47-.2,14.57,14.57,0,0,0-12.3-6.45c-9.14,0-15,11.22-15,21.5,0,9.35,5.24,16.13,13,16.13a16.71,16.71,0,0,0,7-1.61V25.54h8.73V50.41c0,1,1.35,1.34,2.69,1.34h8.14v2Z" fill="#fff"/><path d="M90.81,23.52c0-1-1.55-1.54-3-1.54s-3,.53-3,1.54V53.77h-2V21.51c0-.68,1.08-1.35,2-1.35H99.54v3.77c3.23-3.84,6.25-5.65,10.49-5.65,5.51,0,11.42,3.56,11.42,10.69,0,6.38-4.7,9.61-9.27,9.61-4.24,0-8.2-2.69-8.2-7.19a9.62,9.62,0,0,1,.4-2.63c1.28,1.82,2.49,4.84,5.45,4.84,2,0,4.16-3,4.16-5.78,0-3.76-2.28-5.84-5.24-5.84S102,24.26,99.54,29.3V51.75h26.08v2H90.81Z" fill="#fff"/><path d="M123.34,23.39c-.81-1.82-1-3-2.89-3.23h9.48c1.81.27,2,1.41,2.82,3.23l11.09,25.54c4.37-9.82,7-17.75,7-22.52,0-2.69-2.22-3.69-4.1-3.69-2.29,0-3.23,1.34-3.23,2.68a3.15,3.15,0,0,0,3.16,3.16,6.75,6.75,0,0,0,1.88-.4A4.24,4.24,0,0,1,144.85,30c-2.89,0-6-2.08-6-5.17,0-4.64,4.9-7.12,9.2-7.12,3.57,0,6.86,1.74,6.86,5.44,0,4.91-6.92,21.51-11.56,32a3.62,3.62,0,0,1-3.22,1.68,3.54,3.54,0,0,1-3.23-2.22Z" fill="#fff"/><path d="M167.63,23.52c0-1-1.54-1.54-3-1.54s-3,.53-3,1.54V53.77h-2V21.51c0-.68,1.07-1.35,2-1.35h31.85v2H179.06c-1.34,0-2.69.33-2.69,1.34V53.77h-8.74Zm4.64-22.24a6.61,6.61,0,0,1,6.32,6.85,6.34,6.34,0,1,1-12.64,0A6.62,6.62,0,0,1,172.27,1.28Z" fill="#fff"/><path d="M185.11,37a21,21,0,0,1,20.63-20.9c5.24,0,10.69,3.09,14.92,8.67V2h-6.72V0H229.4V51.75h11.22v2h-20V29.37c-3.56-5.71-8.2-9.21-12.43-9.21-6.86,0-13,6.32-13,16.94C195.26,44.69,199,52,207.42,52c4.1,0,7.26-3.36,7.26-5.71a3.59,3.59,0,0,0-3.56-3.9c-2,0-2.55,1.21-2.55,2.76a20.24,20.24,0,0,0,.53,3.42c-2.62-.47-3.76-2.55-3.76-4.84,0-4.43,2.82-6.31,5.85-6.31,3.56,0,7.39,2.48,7.39,6.38,0,5-5.31,11.83-12.9,11.83C192.1,55.58,185.11,47,185.11,37Z" fill="#fff"/><path d="M262.6,51.75C249.37,46,251.18,23.59,246.48,23.66c-4.37.06-6.19,8.4-6.19,11.83s2.42,8.06,4.84,8.06c2.82,0,2.69-4,2.89-5.91,1.35.67,2.42,3.22,2.42,5.71,0,2.82-1.41,5.64-5.38,5.64-6.11,0-6.78-9.07-6.78-13.5,0-4,2.95-19.09,10.75-19.09,8.6,0,9.07,6.05,11.63,16,1.61,6.46,3.89,16.2,10.08,16.2a4.93,4.93,0,0,0,3.09-1.21c7.73-6.05,8.06-11.15,8.06-13.37,0-3-7.12-8.74-7.12-14.39,0-2,1-4.43,4.17-4.43,5,0,6.31,6,6.31,10.89,0,10.55-3.42,19-11.69,25.4l.13.27h24.2v2H274.77a14.31,14.31,0,0,1,.81,4.9c0,7.66-7.13,12.37-17.28,12.37-9.87,0-21-3.63-21-12.1,0-3.83,2.22-7.19,6.18-7.19Zm4,2H243.45c-2.69,0-4.17,2.41-4.17,5.17,0,6.59,10.15,8.2,15.4,8.2,6.58,0,13.17-2.35,13.17-9.81A5.41,5.41,0,0,0,266.64,53.77Z" fill="#fff"/><path d="M320.48,53.77a4.41,4.41,0,0,1-2.22-.47,13.58,13.58,0,0,1-7.66,2.55,21.73,21.73,0,0,1-21.31-22c0-11.89,10.42-20.63,21-20.63,5.78,0,11.56,2.62,15.73,8.74a.23.23,0,0,1,.07.2.45.45,0,0,1-.47.4.72.72,0,0,1-.47-.2,14.59,14.59,0,0,0-12.3-6.45c-9.14,0-15,11.22-15,21.5,0,9.35,5.24,16.13,13,16.13a16.71,16.71,0,0,0,7-1.61V25.54h8.74V50.41c0,1,1.34,1.34,2.68,1.34h8.14v2Z" fill="#fff"/></svg>